{
 "cells": [
  {
   "cell_type": "code",
   "execution_count": 2,
   "metadata": {},
   "outputs": [
    {
     "name": "stderr",
     "output_type": "stream",
     "text": [
      "ffmpeg version 7.0 Copyright (c) 2000-2024 the FFmpeg developers\n",
      "  built with Apple clang version 15.0.0 (clang-1500.3.9.4)\n",
      "  configuration: --prefix=/opt/homebrew/Cellar/ffmpeg/7.0 --enable-shared --enable-pthreads --enable-version3 --cc=clang --host-cflags= --host-ldflags='-Wl,-ld_classic' --enable-ffplay --enable-gnutls --enable-gpl --enable-libaom --enable-libaribb24 --enable-libbluray --enable-libdav1d --enable-libharfbuzz --enable-libjxl --enable-libmp3lame --enable-libopus --enable-librav1e --enable-librist --enable-librubberband --enable-libsnappy --enable-libsrt --enable-libssh --enable-libsvtav1 --enable-libtesseract --enable-libtheora --enable-libvidstab --enable-libvmaf --enable-libvorbis --enable-libvpx --enable-libwebp --enable-libx264 --enable-libx265 --enable-libxml2 --enable-libxvid --enable-lzma --enable-libfontconfig --enable-libfreetype --enable-frei0r --enable-libass --enable-libopencore-amrnb --enable-libopencore-amrwb --enable-libopenjpeg --enable-libopenvino --enable-libspeex --enable-libsoxr --enable-libzmq --enable-libzimg --disable-libjack --disable-indev=jack --enable-videotoolbox --enable-audiotoolbox --enable-neon\n",
      "  libavutil      59.  8.100 / 59.  8.100\n",
      "  libavcodec     61.  3.100 / 61.  3.100\n",
      "  libavformat    61.  1.100 / 61.  1.100\n",
      "  libavdevice    61.  1.100 / 61.  1.100\n",
      "  libavfilter    10.  1.100 / 10.  1.100\n",
      "  libswscale      8.  1.100 /  8.  1.100\n",
      "  libswresample   5.  1.100 /  5.  1.100\n",
      "  libpostproc    58.  1.100 / 58.  1.100\n",
      "Input #0, mov,mp4,m4a,3gp,3g2,mj2, from '../files/zzoneddeock.mp4':\n",
      "  Metadata:\n",
      "    major_brand     : isom\n",
      "    minor_version   : 512\n",
      "    compatible_brands: isomiso2avc1mp41\n",
      "    encoder         : Lavf58.45.100\n",
      "  Duration: 00:00:04.88, start: 0.000000, bitrate: 944 kb/s\n",
      "  Stream #0:0[0x1](und): Video: h264 (Constrained Baseline) (avc1 / 0x31637661), yuv420p(progressive), 406x720, 843 kb/s, 24 fps, 24 tbr, 90k tbn (default)\n",
      "      Metadata:\n",
      "        handler_name    : VideoHandler\n",
      "        vendor_id       : [0][0][0][0]\n",
      "  Stream #0:1[0x2](und): Audio: aac (LC) (mp4a / 0x6134706D), 44100 Hz, stereo, fltp, 94 kb/s (default)\n",
      "      Metadata:\n",
      "        handler_name    : SoundHandler\n",
      "        vendor_id       : [0][0][0][0]\n",
      "Stream mapping:\n",
      "  Stream #0:1 -> #0:0 (aac (native) -> mp3 (libmp3lame))\n",
      "Press [q] to stop, [?] for help\n",
      "Output #0, mp3, to '../files/zzoneddeock.mp3':\n",
      "  Metadata:\n",
      "    major_brand     : isom\n",
      "    minor_version   : 512\n",
      "    compatible_brands: isomiso2avc1mp41\n",
      "    TSSE            : Lavf61.1.100\n",
      "  Stream #0:0(und): Audio: mp3, 44100 Hz, stereo, fltp (default)\n",
      "      Metadata:\n",
      "        handler_name    : SoundHandler\n",
      "        vendor_id       : [0][0][0][0]\n",
      "        encoder         : Lavc61.3.100 libmp3lame\n",
      "[out#0/mp3 @ 0x12e62f160] video:0KiB audio:76KiB subtitle:0KiB other streams:0KiB global headers:0KiB muxing overhead: 0.456650%\n",
      "size=      76KiB time=00:00:04.82 bitrate= 129.4kbits/s speed= 115x    \n"
     ]
    }
   ],
   "source": [
    "# ffmpeg: Command Line Interface\n",
    "# 동영상 압출, 썸네일 얻기, 오디오 추출\n",
    "\n",
    "import subprocess\n",
    "\n",
    "# ffmpeg -i ./files/zzoneddeock.mp4 -vn ./files/audio.mp3 -> 커맨드로도 가능\n",
    "# video_path: 동영상의 경로, audio_path: 추출한 audio가 저장될 경로\n",
    "def extract_audio_from_video(video_path, audio_path):\n",
    "    command = ['ffmpeg', '-i', video_path, '-vn', audio_path,]\n",
    "    subprocess.run(command)\n",
    "\n",
    "extract_audio_from_video('../files/zzoneddeock.mp4', '../files/zzoneddeock.mp3')"
   ]
  },
  {
   "cell_type": "code",
   "execution_count": 31,
   "metadata": {},
   "outputs": [
    {
     "name": "stderr",
     "output_type": "stream",
     "text": [
      "ffmpeg version 7.0 Copyright (c) 2000-2024 the FFmpeg developers\n",
      "  built with Apple clang version 15.0.0 (clang-1500.3.9.4)\n",
      "  configuration: --prefix=/opt/homebrew/Cellar/ffmpeg/7.0 --enable-shared --enable-pthreads --enable-version3 --cc=clang --host-cflags= --host-ldflags='-Wl,-ld_classic' --enable-ffplay --enable-gnutls --enable-gpl --enable-libaom --enable-libaribb24 --enable-libbluray --enable-libdav1d --enable-libharfbuzz --enable-libjxl --enable-libmp3lame --enable-libopus --enable-librav1e --enable-librist --enable-librubberband --enable-libsnappy --enable-libsrt --enable-libssh --enable-libsvtav1 --enable-libtesseract --enable-libtheora --enable-libvidstab --enable-libvmaf --enable-libvorbis --enable-libvpx --enable-libwebp --enable-libx264 --enable-libx265 --enable-libxml2 --enable-libxvid --enable-lzma --enable-libfontconfig --enable-libfreetype --enable-frei0r --enable-libass --enable-libopencore-amrnb --enable-libopencore-amrwb --enable-libopenjpeg --enable-libopenvino --enable-libspeex --enable-libsoxr --enable-libzmq --enable-libzimg --disable-libjack --disable-indev=jack --enable-videotoolbox --enable-audiotoolbox --enable-neon\n",
      "  libavutil      59.  8.100 / 59.  8.100\n",
      "  libavcodec     61.  3.100 / 61.  3.100\n",
      "  libavformat    61.  1.100 / 61.  1.100\n",
      "  libavdevice    61.  1.100 / 61.  1.100\n",
      "  libavfilter    10.  1.100 / 10.  1.100\n",
      "  libswscale      8.  1.100 /  8.  1.100\n",
      "  libswresample   5.  1.100 /  5.  1.100\n",
      "  libpostproc    58.  1.100 / 58.  1.100\n",
      "[in#0 @ 0x14ae24050] Error opening input: No such file or directory\n",
      "Error opening input file ../files/zzoneddeck.mp4.\n",
      "Error opening input files: No such file or directory\n"
     ]
    }
   ],
   "source": [
    "# ffmpeg 실행 파일이 시스템의 전역 PATH에 포함되어 있음에도 불구하고 가상 환경이 그 경로를 상속하지 않아 발생하는 문제\n",
    "# 가상 환경은 종종 자체적인 격리된 환경을 만들기 때문에, 시스템 전역에 설치된 프로그램에 대한 접근이 제한될 수 있다.\n",
    "# => 가상 환경 내에서 직접 ffmpeg의 경로를 지정 / Python 코드 내에서 ffmpeg의 전체 경로를 명시적으로 사용\n",
    "# which ffmpeg\n",
    "\n",
    "import subprocess\n",
    "\n",
    "def extract_audio_from_video(video_path, audio_path):\n",
    "    command = ['/opt/homebrew/bin/ffmpeg', '-i', video_path, '-vn', audio_path]\n",
    "    subprocess.run(command)\n",
    "    \n",
    "extract_audio_from_video(\"../files/zzoneddeck.mp4\", \"../files/audio.mp3\")\n",
    "    "
   ]
  },
  {
   "cell_type": "code",
   "execution_count": null,
   "metadata": {},
   "outputs": [],
   "source": []
  }
 ],
 "metadata": {
  "kernelspec": {
   "display_name": "env",
   "language": "python",
   "name": "python3"
  },
  "language_info": {
   "codemirror_mode": {
    "name": "ipython",
    "version": 3
   },
   "file_extension": ".py",
   "mimetype": "text/x-python",
   "name": "python",
   "nbconvert_exporter": "python",
   "pygments_lexer": "ipython3",
   "version": "3.11.6"
  }
 },
 "nbformat": 4,
 "nbformat_minor": 2
}
